<?xml version="1.0" encoding="UTF-8" standalone="no"?>
<!-- Created with Inkscape (http://www.inkscape.org/) -->

<svg
   xmlns:dc="http://purl.org/dc/elements/1.1/"
   xmlns:cc="http://creativecommons.org/ns#"
   xmlns:rdf="http://www.w3.org/1999/02/22-rdf-syntax-ns#"
   xmlns:svg="http://www.w3.org/2000/svg"
   xmlns="http://www.w3.org/2000/svg"
   xmlns:sodipodi="http://sodipodi.sourceforge.net/DTD/sodipodi-0.dtd"
   xmlns:inkscape="http://www.inkscape.org/namespaces/inkscape"
   id="svg2"
   version="1.1"
   inkscape:version="0.91 r13725"
   xml:space="preserve"
   width="1000"
   height="1000"
   viewBox="0 0 1000 1000"
   sodipodi:docname="teste.ai.svg"><metadata
     id="metadata8"><rdf:RDF><cc:Work
         rdf:about=""><dc:format>image/svg+xml</dc:format><dc:type
           rdf:resource="http://purl.org/dc/dcmitype/StillImage" /><dc:title /></cc:Work></rdf:RDF></metadata><defs
     id="defs6"><clipPath
       clipPathUnits="userSpaceOnUse"
       id="clipPath20"><path
         d="M 0,800 800,800 800,0 0,0 0,800 Z"
         id="path22"
         inkscape:connector-curvature="0" /></clipPath><clipPath
       clipPathUnits="userSpaceOnUse"
       id="clipPath114"><path
         d="m 318.513,424.339 c -0.664,-35.257 24.724,-64.87 58.5,-73.099 l 0,0 c -9.792,5.866 -18.471,13.928 -25.23,24.028 l 0,0 c -18.816,28.126 -19.79,69.594 11.156,90.302 l 0,0 c 11.822,7.91 26.01,10.744 39.974,7.98 l 0,0 c 13.954,-2.764 25.993,-10.799 33.906,-22.624 l 0,0 c 13.427,-20.062 8.029,-47.309 -12.036,-60.735 l 0,0 c -16.594,-11.101 -39.129,-6.64 -50.228,9.955 l 0,0 c -9.243,13.814 -5.524,32.573 8.288,41.818 l 0,0 c 11.59,7.752 27.331,4.636 35.09,-6.954 l 0,0 c 6.866,-10.271 4.981,-22.314 -4.482,-28.647 l 0,0 c -8.563,-5.728 -19.206,-3.798 -24.76,4.498 l 0,0 c -1.813,2.704 -1.084,6.366 1.622,8.179 l 0,0 c 2.712,1.811 6.372,1.083 8.182,-1.617 l 0,0 c 2.189,-3.279 5.793,-3 8.401,-1.257 l 0,0 c 4.818,3.226 3.68,8.634 1.234,12.285 l 0,0 c -4.137,6.181 -12.533,7.848 -18.732,3.71 l 0,0 c -8.406,-5.628 -10.668,-17.046 -5.04,-25.457 l 0,0 c 7.484,-11.188 22.679,-14.2 33.864,-6.713 l 0,0 c 14.659,9.811 18.606,29.718 8.796,44.378 l 0,0 c -6.158,9.203 -15.534,15.459 -26.397,17.612 l 0,0 c -10.864,2.152 -21.916,-0.054 -31.119,-6.214 l 0,0 c -25.749,-17.227 -23.295,-52.843 -7.915,-75.828 l 0,0 c 12.801,-19.134 31.866,-28.699 55.118,-28.251 l 0,0 c 34.814,2.664 57.439,37.989 56.781,72.651 l 0,0 c -1.017,55.782 -43.677,78.54 -77.479,142.663 l 0,0 C 362.168,502.879 319.538,480.121 318.513,424.339"
         id="path116"
         inkscape:connector-curvature="0" /></clipPath><linearGradient
       x1="0"
       y1="0"
       x2="1"
       y2="0"
       gradientUnits="userSpaceOnUse"
       gradientTransform="matrix(-1.53e-5,-218.06821,-218.06821,1.53e-5,395.99951,568.80469)"
       spreadMethod="pad"
       id="linearGradient122"><stop
         style="stop-opacity:1;stop-color:#00c0f3"
         offset="0"
         id="stop124" /><stop
         style="stop-opacity:1;stop-color:#00c0f3"
         offset="0.78342509"
         id="stop126" /><stop
         style="stop-opacity:1;stop-color:#005496"
         offset="1"
         id="stop128" /></linearGradient></defs><sodipodi:namedview
     pagecolor="#ffffff"
     bordercolor="#666666"
     borderopacity="1"
     objecttolerance="10"
     gridtolerance="10"
     guidetolerance="10"
     inkscape:pageopacity="0"
     inkscape:pageshadow="2"
     inkscape:window-width="1366"
     inkscape:window-height="714"
     id="namedview4"
     showgrid="false"
     inkscape:snap-text-baseline="true"
     inkscape:zoom="0.472"
     inkscape:cx="388.35449"
     inkscape:cy="489.23573"
     inkscape:window-x="0"
     inkscape:window-y="0"
     inkscape:window-maximized="1"
     inkscape:current-layer="g10" /><g
     id="g10"
     inkscape:groupmode="layer"
     inkscape:label="990"
     transform="matrix(1.25,0,0,-1.25,0,1000)"><g
       id="g110"
       transform="matrix(2.7277233,0,0,2.0369241,-689.26339,-459.12446)"><g
         id="g112"
         clip-path="url(#clipPath114)"><g
           id="g118"><g
             id="g120"><path
               d="m 318.513,424.339 c -0.664,-35.257 24.724,-64.87 58.5,-73.099 l 0,0 c -9.792,5.866 -18.471,13.928 -25.23,24.028 l 0,0 c -18.816,28.126 -19.79,69.594 11.156,90.302 l 0,0 c 11.822,7.91 26.01,10.744 39.974,7.98 l 0,0 c 13.954,-2.764 25.993,-10.799 33.906,-22.624 l 0,0 c 13.427,-20.062 8.029,-47.309 -12.036,-60.735 l 0,0 c -16.594,-11.101 -39.129,-6.64 -50.228,9.955 l 0,0 c -9.243,13.814 -5.524,32.573 8.288,41.818 l 0,0 c 11.59,7.752 27.331,4.636 35.09,-6.954 l 0,0 c 6.866,-10.271 4.981,-22.314 -4.482,-28.647 l 0,0 c -8.563,-5.728 -19.206,-3.798 -24.76,4.498 l 0,0 c -1.813,2.704 -1.084,6.366 1.622,8.179 l 0,0 c 2.712,1.811 6.372,1.083 8.182,-1.617 l 0,0 c 2.189,-3.279 5.793,-3 8.401,-1.257 l 0,0 c 4.818,3.226 3.68,8.634 1.234,12.285 l 0,0 c -4.137,6.181 -12.533,7.848 -18.732,3.71 l 0,0 c -8.406,-5.628 -10.668,-17.046 -5.04,-25.457 l 0,0 c 7.484,-11.188 22.679,-14.2 33.864,-6.713 l 0,0 c 14.659,9.811 18.606,29.718 8.796,44.378 l 0,0 c -6.158,9.203 -15.534,15.459 -26.397,17.612 l 0,0 c -10.864,2.152 -21.916,-0.054 -31.119,-6.214 l 0,0 c -25.749,-17.227 -23.295,-52.843 -7.915,-75.828 l 0,0 c 12.801,-19.134 31.866,-28.699 55.118,-28.251 l 0,0 c 34.814,2.664 57.439,37.989 56.781,72.651 l 0,0 c -1.017,55.782 -43.677,78.54 -77.479,142.663 l 0,0 C 362.168,502.879 319.538,480.121 318.513,424.339"
               style="fill:url(#linearGradient122);stroke:none"
               id="path130"
               inkscape:connector-curvature="0" /></g></g></g></g><text
       xml:space="preserve"
       style="font-style:normal;font-variant:normal;font-weight:normal;font-stretch:normal;font-size:58.22225189px;line-height:125%;font-family:'Indie Flower';-inkscape-font-specification:'Indie Flower';letter-spacing:0px;word-spacing:0px;fill:#00baff;fill-opacity:1;stroke:none;stroke-width:1px;stroke-linecap:butt;stroke-linejoin:miter;stroke-opacity:1"
       x="142.17296"
       y="-93.253052"
       id="text3395"
       sodipodi:linespacing="125%"
       transform="scale(0.85559491,-1.1687774)"><tspan
         sodipodi:role="line"
         id="tspan3397"
         x="142.17296"
         y="-93.253052"
         style="font-style:normal;font-variant:normal;font-weight:normal;font-stretch:normal;font-size:131.00006104px;font-family:'Indie Flower';-inkscape-font-specification:'Indie Flower';fill:#00baff;fill-opacity:1">Water for all</tspan></text>
</g></svg>