<?xml version="1.0" encoding="iso-8859-1"?>
<!-- Generator: Adobe Illustrator 19.0.0, SVG Export Plug-In . SVG Version: 6.00 Build 0)  -->
<svg version="1.1" id="Capa_1" xmlns="http://www.w3.org/2000/svg" xmlns:xlink="http://www.w3.org/1999/xlink" x="0px" y="0px"
	 viewBox="0 0 511.999 511.999" style="enable-background:new 0 0 511.999 511.999;" xml:space="preserve">
<path style="fill:#005ED3;" d="M303.514,145.516C265.11,77.523,226.169,19.21,225.78,18.629L213.313,0l-12.467,18.629
	c-0.39,0.581-39.33,58.894-77.734,126.887c-52.473,92.901-79.079,159.25-79.079,197.203c0,93.341,75.939,169.28,169.281,169.28
	s169.28-75.939,169.28-169.28C382.593,304.766,355.987,238.418,303.514,145.516z"/>
<path style="fill:#0088FF;" d="M416.585,170.384c-24.716-43.758-49.015-80.147-50.037-81.675L354.081,70.08l-12.467,18.629
	c-1.022,1.528-25.32,37.916-50.037,81.675c-34.574,61.212-51.381,103.424-51.381,129.045c0,62.796,51.088,113.884,113.884,113.884
	s113.885-51.089,113.885-113.884C467.967,273.807,451.161,231.596,416.585,170.384z"/>
<g>
</g>
<g>
</g>
<g>
</g>
<g>
</g>
<g>
</g>
<g>
</g>
<g>
</g>
<g>
</g>
<g>
</g>
<g>
</g>
<g>
</g>
<g>
</g>
<g>
</g>
<g>
</g>
<g>
</g>
</svg>
